<svg id="f8191aca-eeae-42f1-8b94-1dccb2d8a778" data-name="圖層 1" xmlns="http://www.w3.org/2000/svg" xmlns:xlink="http://www.w3.org/1999/xlink" viewBox="0 0 434.43 247.6"><defs><style>.\31 ac0aae7-af09-422f-a364-6028d4e8b6ca{fill:#00aed4;}.\37 8ac667a-b7c3-4b54-a56b-498423637940{fill:#0559a7;}.b34eea56-85a5-4589-b55f-ae134807def0{fill:url(#4d72d3a2-aeb4-4df4-a7f5-70b7b7d3a70c);}.a388fcd6-50dc-428e-b6a8-12243cf5dafd{fill:url(#76a931dc-de05-4fa8-aee4-e838a16b1e59);}.d4253d32-3bd7-4122-9517-20d4c5e56471{fill:url(#f990f068-92df-4afb-80fa-b2efe209a35c);}.\38 1a14814-d720-4319-8a31-ced7a3c284ac{fill:url(#676be04b-b1ca-4f0c-8489-36c2a7e5103a);}.\31 096f3d6-87c4-42d9-95a7-7bba5b827605{fill:#fff;}</style><linearGradient id="4d72d3a2-aeb4-4df4-a7f5-70b7b7d3a70c" x1="19.56" y1="97.62" x2="119.16" y2="48.52" gradientUnits="userSpaceOnUse"><stop offset="0.21" stop-color="#ab347b"/><stop offset="0.72" stop-color="#e6336c"/><stop offset="1" stop-color="#f08a42"/></linearGradient><linearGradient id="76a931dc-de05-4fa8-aee4-e838a16b1e59" x1="3" y1="64.04" x2="102.6" y2="14.94" xlink:href="#4d72d3a2-aeb4-4df4-a7f5-70b7b7d3a70c"/><linearGradient id="f990f068-92df-4afb-80fa-b2efe209a35c" x1="45.26" y1="213.51" x2="114.82" y2="70.41" gradientUnits="userSpaceOnUse"><stop offset="0" stop-color="#24b9df"/><stop offset="0.2" stop-color="#16addd"/><stop offset="0.44" stop-color="#009ad9"/><stop offset="0.58" stop-color="#018cce"/><stop offset="0.85" stop-color="#0467b2"/><stop offset="0.94" stop-color="#0559a7"/></linearGradient><linearGradient id="676be04b-b1ca-4f0c-8489-36c2a7e5103a" x1="5.75" y1="194.3" x2="75.31" y2="51.2" xlink:href="#f990f068-92df-4afb-80fa-b2efe209a35c"/></defs><title>170817_資安網站logo_final</title><path class="1ac0aae7-af09-422f-a364-6028d4e8b6ca" d="M193.26,87.69l-2.33-6.32h-5.58L183,87.69h-4.38l7.72-22h3.49l7.76,22Zm-5.12-16.44L186.28,78H190Z"/><path class="1ac0aae7-af09-422f-a364-6028d4e8b6ca" d="M209.52,74a6.07,6.07,0,0,0-2.17-.63c-1,0-2.44,1.54-2.44,1.54V87.69h-4.07V70.58h4.11v1.26s1.71-1.78,2.95-1.78a4.5,4.5,0,0,1,2.29.52Z"/><path class="1ac0aae7-af09-422f-a364-6028d4e8b6ca" d="M217.35,88.21c-2.83,0-3.88-2-3.88-4.29V73.59L211,73.2V70.58h2.6V67.51h3.84v3.07h3.45v3.11h-3.37V83.81c0,.56,0,1.22,1,1.22a6.6,6.6,0,0,0,2-.45l1,2.58A8.1,8.1,0,0,1,217.35,88.21Z"/><path class="1ac0aae7-af09-422f-a364-6028d4e8b6ca" d="M244.51,88.21c-6.32,0-8.69-6.35-8.69-11.52s2.48-11.52,8.69-11.52,8.69,6.35,8.69,11.52S250.79,88.21,244.51,88.21Zm0-19.69c-3.53,0-4.46,4.75-4.46,8.17s.93,8.17,4.46,8.17S249,80.11,249,76.69,248,68.52,244.51,68.52Z"/><path class="1ac0aae7-af09-422f-a364-6028d4e8b6ca" d="M262.2,68.8v1.78h3.53v3.07H262.2v14h-4.07V73.59l-2.48-.38V70.58h2.48v-2c0-5.38,7.21-5.59,7.21-5.59l.7,2.65S262.2,65.9,262.2,68.8Z"/><path class="1ac0aae7-af09-422f-a364-6028d4e8b6ca" d="M289.39,88.21c-7.1,0-9.5-6.11-9.5-11.52,0-5.1,3-11.52,9.58-11.52a12.68,12.68,0,0,1,6.32,1.57l-1.63,2.62a10.82,10.82,0,0,0-4.69-.94c-3.61,0-5.35,5.41-5.35,8.41s.93,8.1,5.43,8.1a9.14,9.14,0,0,0,4.66-1.33l1.94,2.58A12.14,12.14,0,0,1,289.39,88.21Z"/><path class="1ac0aae7-af09-422f-a364-6028d4e8b6ca" d="M304.32,92.89a15.58,15.58,0,0,1-4,1.47l-.89-2.76A7.54,7.54,0,0,0,302,90.38a9.46,9.46,0,0,0,2.13-2.69l-6.59-17.11h4.31c1.12,3.21,3.41,9.6,3.41,9.6a21.9,21.9,0,0,1,1,3.53,91.76,91.76,0,0,0,3.88-13.13h4.15C313.05,75.78,309,89.85,304.32,92.89Z"/><path class="1ac0aae7-af09-422f-a364-6028d4e8b6ca" d="M324.57,88.21a12.33,12.33,0,0,1-6.83-2.27V63.43h4.07v8.41a6.33,6.33,0,0,1,3.84-1.78c4.85,0,7.06,4.22,7.06,8.06C332.72,82.77,330.78,88.21,324.57,88.21Zm.74-14.87a7.07,7.07,0,0,0-3.49,1.75v9.18a6.62,6.62,0,0,0,3,.94c3.14,0,3.72-4.64,3.72-6.74C328.57,76.59,328.1,73.34,325.31,73.34Z"/><path class="1ac0aae7-af09-422f-a364-6028d4e8b6ca" d="M340.09,78.93a3.41,3.41,0,0,0,0,.63c0,2,.93,5.55,3.72,5.55a10.39,10.39,0,0,0,5.08-1.89l1.36,2.37a12.9,12.9,0,0,1-6.67,2.62c-5.74,0-7.6-5.17-7.6-9.5s3.06-8.66,8.3-8.66a7.13,7.13,0,0,1,6.9,6.56c0,.77,0,1.54,0,2.3ZM344,72.78c-2,0-2.91,1.54-3.34,3.11h6.48A3.14,3.14,0,0,0,344,72.78Z"/><path class="1ac0aae7-af09-422f-a364-6028d4e8b6ca" d="M364.06,74a6.07,6.07,0,0,0-2.17-.63c-1,0-2.44,1.54-2.44,1.54V87.69h-4.07V70.58h4.11v1.26s1.71-1.78,2.95-1.78a4.51,4.51,0,0,1,2.29.52Z"/><path class="1ac0aae7-af09-422f-a364-6028d4e8b6ca" d="M398.08,87.69h-4.15l-3.3-13.34a11.5,11.5,0,0,1-.35-2,15.83,15.83,0,0,1-.31,2l-3.34,13.34h-4.15l-5.59-22h4.27l3,12.32a17.91,17.91,0,0,1,.47,3.21A13.33,13.33,0,0,1,385,78l3.22-12.29h4L395.52,78a13.28,13.28,0,0,1,.43,3.25,17.91,17.91,0,0,1,.47-3.21l3-12.32h4.23Z"/><path class="1ac0aae7-af09-422f-a364-6028d4e8b6ca" d="M418.13,88.18a3.21,3.21,0,0,1-3.37-2.48A5.5,5.5,0,0,1,410,88.21c-3.45,0-5.16-1.85-5.16-4.89A8,8,0,0,1,406,79.87l8.34-3.25V74.91c0-1.33-.93-1.71-2.25-1.71a8.45,8.45,0,0,0-4.93,2.09l-1.4-2.2a9.8,9.8,0,0,1,6.67-3c3.49,0,6,1.54,6,4.89V84.9c0,.42.15.91.74.91a1.77,1.77,0,0,0,.7-.21l1,1.85A5.75,5.75,0,0,1,418.13,88.18Zm-3.76-8.45-5.43,2a5.41,5.41,0,0,0-.31,1.54,1.79,1.79,0,0,0,1.79,1.92c2.48,0,4-2.76,4-4.85Z"/><path class="1ac0aae7-af09-422f-a364-6028d4e8b6ca" d="M432.91,74a6.07,6.07,0,0,0-2.17-.63c-1,0-2.44,1.54-2.44,1.54V87.69h-4.07V70.58h4.11v1.26s1.71-1.78,2.95-1.78a4.51,4.51,0,0,1,2.29.52Z"/><path class="78ac667a-b7c3-4b54-a56b-498423637940" d="M166.46,211.78c-.25,1-1.19,1.53-2.79,1.53H141q-2.9,0-3.16-1.83l-.59-14.05q0-1.83-3.16-1.83H106.48q-3.14,0-4.08,1.83l-7.61,14.05a4.48,4.48,0,0,1-4.08,1.83H68q-2.41,0-2-1.53l.08-.31,60.6-109.19a4.21,4.21,0,0,1,3.87-2h27.34q2.9,0,2.92,1.83Z"/><path class="78ac667a-b7c3-4b54-a56b-498423637940" d="M272.72,186.13q-2.9,11.6-18,19.93a68.64,68.64,0,0,1-33.7,8.32h-3.86q-18.34,0-29.41-8.32t-8.17-19.93l14.62-58.49q2.94-11.76,18.15-20a69.26,69.26,0,0,1,33.55-8.25h3.86q18.58,0,29.55,8.25t8,20l-2.75,11q-.46,1.83-3.35,1.83H259q-2.89,0-2.44-1.83l2.75-11q1.11-4.43-3-7.48t-11.06-3.05h-3.86A26,26,0,0,0,229,120.15q-5.71,3.06-6.82,7.49l-14.62,58.49q-1.07,4.28,3.1,7.41t10.92,3.13h3.86A25.41,25.41,0,0,0,238,193.53q5.61-3.13,6.68-7.41l2.75-11q.5-2,3.39-2h22.2q2.9,0,2.4,2Z"/><path class="78ac667a-b7c3-4b54-a56b-498423637940" d="M434.36,102.13l0,.15L381.21,211.48q-.94,1.83-3.84,1.83H356.62q-3.38,0-2.92-1.83l1-43.68c.1-.41-.25-.61-1.05-.61-.65,0-1,.21-1.12.61l-20.81,43.68q-.94,1.83-3.84,1.83h-21q-3.14,0-2.68-1.83L305.78,102q.42-1.68,3.07-1.68H331.3q2.89,0,2.88,2l-.95,43.37q-.15.61.81.61c.8,0,1.26-.2,1.36-.61l20.74-43.37q1-2,3.87-2h21.24c1.93,0,2.89.66,2.88,2L383,145.5c-.1.41.17.61.81.61.8,0,1.26-.2,1.36-.61l20.7-43.22q1-2,3.88-2h22.44Q434.82,100.3,434.36,102.13Z"/><path class="b34eea56-85a5-4589-b55f-ae134807def0" d="M40.53,41.41A137.31,137.31,0,0,1,63.29,22.7,152.37,152.37,0,0,1,88.73,9.14a123.26,123.26,0,0,1,27.71-8.07C126-.39,136.19-.73,146.15,2.47a34,34,0,0,1,13.53,8.06,32.69,32.69,0,0,1,7.91,13.3c3,9.73,1.85,19.61-.83,28.5A78.88,78.88,0,0,1,154,76.65a96.53,96.53,0,0,1-19.28,18.94,95.19,95.19,0,0,0,17.11-20.43A74.94,74.94,0,0,0,161.65,51c1.7-8.38,1.6-17.21-1.49-24.49a21.49,21.49,0,0,0-6.83-8.86,23.61,23.61,0,0,0-10.11-4.23c-7.48-1.35-15.71-.11-23.56,2.22A106.83,106.83,0,0,0,96.9,25.78C82.49,34.23,69.49,45.44,60,58.19Z"/><polygon class="a388fcd6-50dc-428e-b6a8-12243cf5dafd" points="14.73 91.11 88.61 53.36 52.94 46.71 41.04 12.43 14.73 91.11"/><path class="d4253d32-3bd7-4122-9517-20d4c5e56471" d="M69,118c-15.11,11.21-28.4,26.62-38.43,43.71a126.65,126.65,0,0,0-12,27c-2.76,9.3-4.23,19.06-2.63,27.93a28,28,0,0,0,5,12,25.47,25.47,0,0,0,10.5,8.1c8.63,3.66,19.1,3.78,29,1.77a88.85,88.85,0,0,0,28.62-11.7,112.86,112.86,0,0,0,24.22-20.28,114.42,114.42,0,0,1-22.45,22.85A93.5,93.5,0,0,1,62,244.52c-10.54,3.18-22.26,4.51-33.79,1a38.75,38.75,0,0,1-15.76-9.38,40.28,40.28,0,0,1-9.55-16c-3.79-11.81-3.39-23.87-1.67-35.23A146.11,146.11,0,0,1,10.83,152a180.67,180.67,0,0,1,16.08-30.16,162.77,162.77,0,0,1,22.17-27Z"/><polygon class="81a14814-d720-4319-8a31-ced7a3c284ac" points="108.02 64.29 14.73 95.47 55.37 109.58 63.26 151.87 108.02 64.29"/><path class="1096f3d6-87c4-42d9-95a7-7bba5b827605" d="M124.81,173.22a24.84,24.84,0,0,1-7.08-8.43c-1.63-2.88-.92-8,.49-11.92l.17-.46.11-.4c1.85-6.3,1.42-4.69,2.77-9.14a2.74,2.74,0,0,1,2.61-1.85h20.56a2.16,2.16,0,0,1,2.24,2.74l-1,3.37c-3.44,11.72-4.2,13.83-10.62,19.38C131.73,169.39,127.28,171.64,124.81,173.22Z"/></svg>