<?xml version="1.0" encoding="utf-8"?>
<!-- Generator: Adobe Illustrator 17.0.0, SVG Export Plug-In . SVG Version: 6.00 Build 0)  -->
<!DOCTYPE svg PUBLIC "-//W3C//DTD SVG 1.1//EN" "http://www.w3.org/Graphics/SVG/1.1/DTD/svg11.dtd">
<svg version="1.1" id="圖層_1" xmlns="http://www.w3.org/2000/svg" xmlns:xlink="http://www.w3.org/1999/xlink" x="0px" y="0px"
	 width="200px" height="53px" viewBox="0 0 200 53" enable-background="new 0 0 200 53" xml:space="preserve">
<g id="圖層_2" display="none">
	<rect display="inline" fill="#494949" width="200" height="53"/>
</g>
<g id="圖層_1_1_">
	<g>
		<g>
			<path d="M29.659,39.156c-4.696,0-8.563-3.867-8.563-8.563s3.867-8.563,8.563-8.563V9.185c-11.74,0-21.408,9.668-21.408,21.408
				S17.92,52,29.659,52s21.408-9.668,21.408-21.408H38.222C38.222,35.427,34.355,39.156,29.659,39.156L29.659,39.156z"/>
			<path fill="#EFAC3F" d="M37.52,7.021c0.414,0,0.829,0.276,1.105,0.414c0.276,0.276,0.552,0.691,0.552,1.105
				s-0.138,0.829-0.553,1.243c-0.276,0.276-0.69,0.414-1.104,0.414s-0.829-0.138-1.243-0.414c-0.415-0.276-0.553-0.829-0.553-1.243
				S36,7.711,36.277,7.435C36.553,7.159,36.967,7.021,37.52,7.021L37.52,7.021z M37.52,22.351c0.276,0,0.691,0.138,1.105,0.414
				c0.276,0.276,0.414,0.829,0.414,1.105s-0.138,0.691-0.414,1.105c-0.277,0.277-0.691,0.415-1.105,0.415
				c-0.414,0-0.829-0.138-0.967-0.414c-0.276-0.276-0.414-0.691-0.414-1.105s0.138-0.829,0.414-1.105
				C36.829,22.351,37.105,22.351,37.52,22.351L37.52,22.351z M37.52,12.269c0.276,0,0.691,0.138,0.829,0.414
				c0.276,0.276,0.414,0.552,0.414,0.829s-0.138,0.691-0.414,0.967s-0.552,0.276-0.829,0.276s-0.691-0.138-0.967-0.276
				c-0.276-0.276-0.276-0.691-0.276-0.967s0.138-0.691,0.276-0.829C36.829,12.545,37.105,12.269,37.52,12.269L37.52,12.269z
				 M42.492,1.496c0.552,0,0.967,0.276,1.381,0.691c0.414,0.414,0.691,0.829,0.691,1.381s-0.276,0.967-0.691,1.381
				c-0.276,0.276-0.829,0.552-1.381,0.552c-0.552,0-0.967-0.276-1.381-0.552c-0.277-0.414-0.553-0.829-0.553-1.381
				s0.276-0.967,0.552-1.381C41.525,1.634,41.939,1.496,42.492,1.496L42.492,1.496z M42.492,11.855c0.414,0,0.829,0.276,1.243,0.552
				c0.276,0.276,0.552,0.829,0.552,1.243c0,0.552-0.276,0.967-0.552,1.243s-0.829,0.552-1.243,0.552
				c-0.552,0-0.967-0.276-1.381-0.552c-0.276-0.276-0.552-0.691-0.552-1.243c0-0.414,0.276-0.829,0.552-1.243
				C41.525,11.993,41.939,11.855,42.492,11.855L42.492,11.855z M42.492,22.213c0.414,0,0.829,0.138,1.105,0.414
				s0.414,0.691,0.414,1.105s-0.138,0.829-0.414,1.243c-0.276,0.276-0.691,0.414-1.105,0.414s-0.829-0.138-1.243-0.414
				c-0.276-0.276-0.552-0.829-0.552-1.243s0.138-0.829,0.552-1.105S42.077,22.213,42.492,22.213L42.492,22.213z M47.602,11.578
				c0.552,0,0.967,0.276,1.381,0.691s0.691,0.829,0.691,1.381s-0.276,0.967-0.691,1.381c-0.276,0.276-0.829,0.552-1.381,0.552
				c-0.552,0-1.105-0.276-1.381-0.552c-0.276-0.414-0.552-0.829-0.552-1.381s0.276-0.967,0.552-1.381
				C46.635,11.855,47.049,11.578,47.602,11.578L47.602,11.578z M47.602,21.937c0.414,0,0.829,0.276,1.381,0.552
				c0.276,0.276,0.552,0.829,0.552,1.243c0,0.552-0.276,0.967-0.552,1.243s-0.829,0.552-1.381,0.552
				c-0.552,0-0.967-0.276-1.243-0.552c-0.414-0.276-0.552-0.691-0.552-1.243c0-0.414,0.276-0.829,0.552-1.243
				S47.049,21.937,47.602,21.937L47.602,21.937z M47.602,17.379c0.276,0,0.691,0.138,0.829,0.414
				c0.276,0.276,0.414,0.552,0.414,0.829s-0.138,0.691-0.414,0.967s-0.552,0.276-0.829,0.276s-0.691-0.138-0.967-0.276
				c-0.276-0.276-0.276-0.552-0.276-0.967c0-0.276,0.138-0.691,0.276-0.829C46.911,17.517,47.326,17.379,47.602,17.379
				L47.602,17.379z M52.712,16.689c0.552,0,0.967,0.276,1.381,0.691s0.691,0.829,0.691,1.381s-0.276,0.967-0.691,1.381
				c-0.276,0.276-0.829,0.552-1.381,0.552c-0.552,0-1.105-0.276-1.381-0.552c-0.276-0.414-0.552-0.829-0.552-1.381
				s0.276-0.967,0.552-1.381C51.745,16.827,52.16,16.689,52.712,16.689L52.712,16.689z"/>
			<path d="M57.505,44.707V28.962h4.558c1.381,0,2.762,0.138,3.729,0.276c0.967,0.138,1.934,0.414,2.624,0.691
				c1.381,0.691,2.486,1.795,3.177,2.9s1.105,2.624,1.105,4.005c0,1.519-0.414,2.9-1.105,4.005s-1.795,2.21-3.177,2.9
				c-0.691,0.276-1.519,0.552-2.624,0.691c-0.967,0.138-2.486,0.276-4.143,0.276L57.505,44.707L57.505,44.707z M63.167,40.011
				c1.243,0,2.348-0.276,2.9-0.691c0.552-0.552,0.829-1.243,0.829-2.348s-0.276-1.934-0.829-2.348
				c-0.552-0.414-1.381-0.691-2.624-0.691h-0.276V40.011L63.167,40.011z"/>
			<path d="M74.769,44.707V33.52h5.386v1.519c0.414-0.552,0.967-1.105,1.519-1.381c0.552-0.276,1.243-0.414,1.934-0.414
				c0.138,0,0.138,0,0.276,0h0.138v5.525c-0.276-0.138-0.552-0.276-0.829-0.414c-0.276-0.138-0.414-0.138-0.691-0.138
				c-0.691,0-1.243,0.138-1.519,0.552c-0.414,0.414-0.552,0.829-0.552,1.519v4.42L74.769,44.707L74.769,44.707z"/>
			<path d="M94.773,44.707v-1.795c-0.552,0.691-1.105,1.243-1.795,1.519c-0.552,0.276-1.243,0.552-2.072,0.552
				c-1.243,0-2.486-0.552-3.315-1.795c-0.829-1.105-1.243-2.624-1.243-4.282c0-1.934,0.414-3.315,1.243-4.42
				c0.829-1.105,1.934-1.795,3.315-1.795c0.691,0,1.243,0.138,1.934,0.414s1.105,0.691,1.519,1.381v-1.381h5.248v11.187h-4.834
				C94.773,44.292,94.773,44.707,94.773,44.707z M91.872,39.183c0,0.414,0.138,0.829,0.414,1.105s0.552,0.414,0.967,0.414
				c0.414,0,0.691-0.138,0.967-0.414s0.414-0.691,0.414-1.105s-0.138-0.829-0.414-1.105s-0.552-0.414-0.967-0.414
				c-0.414,0-0.691,0.138-0.967,0.414C91.872,38.216,91.872,38.768,91.872,39.183L91.872,39.183z"/>
			<path d="M109.827,43.74v-0.967c-0.552,0.552-0.967,0.967-1.519,1.243c-0.552,0.276-1.105,0.414-1.934,0.414
				c-1.243,0-2.486-0.414-3.177-1.381c-0.829-0.967-1.243-2.348-1.243-3.729c0-1.934,0.414-3.315,1.243-4.282
				c0.829-1.105,1.934-1.519,3.315-1.519c0.691,0,1.243,0.138,1.934,0.414c0.552,0.276,1.105,0.691,1.519,1.243v-1.381h5.248v9.668
				c0,0.967,0,1.795-0.138,2.21c-0.138,0.414-0.276,0.967-0.414,1.243c-0.414,0.967-1.243,1.795-2.486,2.21
				c-1.243,0.552-2.762,0.691-4.558,0.691c-0.967,0-2.072-0.138-2.9-0.276c-0.829-0.138-1.795-0.414-2.486-0.691l1.105-3.591
				c0.552,0.414,1.243,0.691,1.934,0.829c0.552,0.138,1.105,0.276,1.795,0.276c0.829,0,1.519-0.138,2.072-0.552
				C109.551,45.26,109.827,44.569,109.827,43.74L109.827,43.74z M107.203,38.906c0,0.414,0.138,0.691,0.414,0.967
				c0.276,0.276,0.552,0.414,0.967,0.414c0.414,0,0.691-0.138,0.967-0.414s0.414-0.552,0.414-0.967s-0.138-0.691-0.414-0.967
				c-0.276-0.276-0.552-0.414-0.967-0.414c-0.414,0-0.691,0.138-0.967,0.414C107.341,38.078,107.203,38.63,107.203,38.906
				L107.203,38.906z"/>
			<path d="M129.991,39.321c0,0.829-0.138,1.519-0.552,2.486c-0.414,0.691-0.829,1.381-1.519,2.072
				c-0.552,0.414-1.243,0.829-2.072,1.105c-0.691,0.276-1.519,0.414-2.486,0.414s-1.795-0.138-2.486-0.414s-1.381-0.691-2.072-1.105
				c-0.691-0.552-1.105-1.243-1.519-2.072c-0.414-0.691-0.552-1.519-0.552-2.486c0-0.829,0.138-1.795,0.552-2.486
				c0.276-0.691,0.829-1.381,1.519-2.072c0.552-0.414,1.243-0.829,2.072-1.105c0.691-0.276,1.519-0.414,2.486-0.414
				s1.795,0.138,2.486,0.414s1.381,0.691,2.072,1.105c0.691,0.552,1.105,1.243,1.519,2.072
				C129.853,37.525,129.991,38.492,129.991,39.321L129.991,39.321z M123.362,40.702c0.414,0,0.691-0.138,0.967-0.414
				s0.414-0.552,0.414-1.105c0-0.414-0.138-0.829-0.414-1.105s-0.552-0.414-0.967-0.414c-0.414,0-0.691,0.138-0.967,0.414
				s-0.414,0.691-0.414,1.105s0.138,0.829,0.414,1.105S122.948,40.702,123.362,40.702L123.362,40.702z"/>
			<path d="M131.925,44.707V33.52h5.386v1.519c0.414-0.691,0.967-1.105,1.519-1.381s1.105-0.414,1.934-0.414
				c1.105,0,2.21,0.414,2.9,1.105c0.69,0.691,0.967,1.795,0.967,3.038v7.458h-5.525v-5.663c0-0.552-0.138-0.967-0.138-1.105
				c-0.138-0.138-0.276-0.276-0.552-0.276s-0.552,0.138-0.691,0.414c-0.138,0.276-0.276,0.552-0.276,1.105v5.663h-5.525v-0.276
				H131.925z"/>
			<path fill="#EFAC3F" d="M148.084,39.735c0.552,0.691,1.243,1.243,1.934,1.519c0.552,0.414,1.243,0.552,1.934,0.552
				s0.967-0.138,1.381-0.414s0.552-0.691,0.552-1.105c0-0.552-0.138-0.967-0.414-1.243s-0.967-0.552-2.21-0.829
				c-1.519-0.414-2.762-0.967-3.315-1.519c-0.691-0.691-0.967-1.519-0.967-2.762c0-1.519,0.414-2.762,1.519-3.729
				c0.967-0.967,2.348-1.381,3.867-1.381c0.829,0,1.795,0.138,2.486,0.276c0.691,0.276,1.381,0.552,2.21,0.967l-1.243,3.177
				c-0.414-0.414-0.967-0.691-1.519-0.967c-0.414-0.276-0.967-0.276-1.519-0.276s-0.967,0.138-1.243,0.414s-0.414,0.552-0.414,0.967
				c0,0.414,0.138,0.691,0.414,0.967c0.276,0.276,0.829,0.414,1.795,0.691h0.138c1.795,0.414,2.9,0.967,3.453,1.519
				c0.414,0.414,0.691,0.829,0.829,1.381c0.138,0.552,0.276,1.105,0.276,1.934c0,1.795-0.552,3.038-1.795,4.005
				c-1.105,0.967-2.624,1.519-4.42,1.519c-1.105,0-2.21-0.138-3.038-0.552c-0.829-0.414-1.795-0.967-2.624-1.795L148.084,39.735
				L148.084,39.735z"/>
			<path fill="#EFAC3F" d="M173.06,39.321c0,0.829-0.138,1.519-0.414,2.348c-0.276,0.691-0.691,1.243-1.243,1.934
				c-0.552,0.552-1.243,0.967-2.072,1.243c-0.691,0.276-1.381,0.414-2.348,0.414c-0.829,0-1.519-0.138-2.348-0.414
				c-0.829-0.276-1.381-0.691-2.072-1.243s-0.967-1.105-1.243-1.934c-0.276-0.691-0.414-1.381-0.414-2.348s0.138-1.519,0.414-2.348
				c0.276-0.691,0.691-1.243,1.243-1.934c0.552-0.552,1.243-0.967,2.072-1.243c0.691-0.276,1.519-0.414,2.486-0.414
				c0.967,0,1.519,0.138,2.348,0.414c0.691,0.276,1.381,0.691,2.072,1.243c0.552,0.552,0.967,1.105,1.243,1.934
				C172.922,37.802,173.06,38.63,173.06,39.321L173.06,39.321z M169.193,39.459c0-0.829-0.138-1.381-0.552-1.934
				c-0.414-0.414-0.967-0.691-1.795-0.691c-0.829,0-1.243,0.276-1.795,0.691c-0.414,0.414-0.552,1.105-0.552,1.934
				s0.138,1.381,0.552,1.934c0.414,0.414,0.967,0.691,1.795,0.691c0.829,0,1.243-0.276,1.795-0.691
				C169.055,40.84,169.193,40.149,169.193,39.459L169.193,39.459z"/>
			<path fill="#EFAC3F" d="M177.043,44.707V36.42h-1.795v-2.762h1.795V31.31c0-1.243,0.276-2.348,0.967-2.9
				c0.691-0.552,1.795-0.967,3.177-0.967c0.138,0,0.414,0,0.691,0c0.276,0,0.552,0.138,0.829,0.138v3.177
				c-0.138,0-0.276-0.138-0.414-0.138s-0.276,0-0.414,0c-0.414,0-0.552,0.138-0.691,0.276c-0.138,0.138-0.276,0.552-0.276,0.967
				v1.795h2.072v2.762h-2.072v8.287L177.043,44.707L177.043,44.707z"/>
			<polygon fill="#EFAC3F" points="186.412,44.707 186.412,36.559 184.893,36.559 184.893,33.796 186.412,33.796 186.412,30.482 
				190.417,30.482 190.417,33.796 191.936,33.796 191.936,36.559 190.417,36.559 190.417,44.707 			"/>
		</g>
	</g>
	<rect x="-200.5" y="-76.728" fill="none" width="610" height="203.028"/>
	<g>
		<g>
			<g>
				<path fill="#F74D4D" d="M130.175,8.876c0,0.276,0.276,0.138,0.414,0.414c0,0.138,0.691,0.276,0.967,0.138
					c0,0,0.138-0.276,0-0.276s0-0.138-0.138-0.276c-0.138-0.138-0.414-0.276-0.829-0.414c-0.138,0-0.414,0-0.691,0
					c0,0.138,0,0.138,0,0.276C129.899,8.876,130.175,8.876,130.175,8.876z M136.114,13.986c0.138-0.138,0.691-0.138,1.243-0.276
					c0.138,0,0.414,0,0.829-0.138c0.138-0.138,0.829-0.138,0.967-0.138c0,0.138,0,0.276-0.138,0.414s-0.414,0.829-0.276,0.829
					s0.967-0.829,1.105-0.967c0.138,0,0.276-0.276,0.414-0.414c0-0.138,0-0.276-0.138-0.414s-0.829-0.414-1.105-0.276
					c-0.276,0-0.414,0.138-0.691,0.276c-0.414,0.138-0.829,0.138-0.967,0.138s-0.276,0.138-0.691,0.276c-0.138,0-0.414,0-0.691,0
					c-0.277,0,0-0.414,0-0.691c0-0.138,0-0.414,0-0.691s0-0.829,0-1.105c0-0.276,0-0.829,0-0.967s-0.138-0.138-0.138-0.138
					s-0.138,0.414-0.138,0.691c0,0.138-0.138,0.691-0.276,0.967c0,0.276-0.276,0.967-0.276,1.243c0,0.414,0,0.829,0,1.105
					C135.147,13.848,135.837,13.986,136.114,13.986z M136.942,11.086c0.691,0,0.414-0.138,1.381-0.276
					c0.414,0,1.381-0.414,1.243-0.691c0-0.138-0.276-0.138-0.691-0.276c-0.138,0-0.414,0-0.967,0.138
					c-0.276,0.138-1.243,0.414-1.381,0.691c-0.138,0.138-0.276,0.276-0.276,0.276C136.252,10.948,136.666,11.086,136.942,11.086z
					 M132.661,9.981c-0.138,0-0.414,0.138-0.414,0.138c-0.138,0-0.276,0-0.414,0s-0.414,0.138-0.829,0.276
					c-0.138,0.138-0.276,0-0.691,0.138c-0.138,0.138-0.276,0.276-0.414,0.276s-0.276,0-0.414,0.138s-0.276,0.138-0.414,0.138
					s-1.243,0.138-1.243,0.276s0.829,0,0.967,0s1.105-0.138,1.381-0.138c0.414,0,0.829,0,0.967,0s0.276-0.138,0.414-0.276
					c0.138,0,0.276,0,0.414,0s0.138-0.138,0.414-0.276c0.138,0,0.414,0,0.414,0.138s-0.138,0.138-0.276,0.138l-0.414,0.276
					c-0.138,0-0.276,0.138-0.276,0.138s-0.276,0.276-0.967,0.691c0.829-0.138,1.243-0.276,1.381-0.276s0.276-0.138,0.414-0.138
					l0.276-0.138c0.138,0,0.276,0,0.414,0s0.276-0.138,0.276-0.414s-0.138-0.414-0.276-0.691
					C133.351,10.119,132.799,9.981,132.661,9.981z M133.351,14.125c-0.138,0-0.967,0-1.105,0c-0.138,0.138-0.414,0.138-0.691,0
					c0-0.138,0.138-0.276,0.138-0.276c0.138,0,0.276-0.138,0.276-0.138c0.138,0,0.276-0.276,0.414-0.276s0.276-0.138,0.276-0.138
					s0.138,0,0.138-0.138c0,0,0.138-0.276,0-0.414s-0.276-0.414-0.414-0.414c-0.276,0-0.414,0.138-0.829,0.138
					c0,0-0.276,0-0.414,0.138c-0.138,0-0.276,0.138-0.414,0.276l0,0c-0.138,0-0.276,0.138-0.414,0.138
					c-0.276,0.138-0.414,0.276-0.829,0.414v-0.138c-0.138,0.138-0.414,0.276-0.691,0.414c-0.138,0.138-0.138,0.414,0,0.414
					c0.414,0.138,0.829,0,1.105-0.138l0.414-0.138c0.138-0.138,0.276-0.276,0.414-0.276s0.276-0.138,0.414-0.138
					c0,0,0.138,0,0.138-0.138c0.138-0.138,0.691-0.276,0.691-0.138c0,0-0.276,0.276-0.276,0.414s-0.276,0.138-0.276,0.276
					c-0.138,0.138-0.276,0.414-0.414,0.414c-0.414,0.276-0.414,0.276-0.414,0.276c-0.138,0-0.138,0-0.138,0.138
					c-0.691,0.138-0.967,0.138-1.243,0.276c-0.138,0.138-0.276,0.138-0.276,0.138c-0.138,0-0.414,0.138-0.691,0.138
					c-0.414,0.138-0.967,0.414-0.967,0.414c-0.138,0-0.276,0-0.276,0.138c0,0,0,0.138,0.138,0.138c1.105,0,1.243,0,1.381-0.138
					c0.138,0,0.276-0.138,0.414-0.138c0.829-0.138,0.829-0.138,1.105-0.138c0.138-0.138,0.276,0,0.691-0.138
					c0.276-0.138,0.691-0.138,0.967-0.276c0.276-0.138,0.967-0.276,0.829-0.276c0,0,0.138,0,0.276-0.138
					c0.138,0,1.243,0,1.381-0.138C133.904,14.539,133.628,14.125,133.351,14.125z M137.771,14.953
					c-0.138,0.138-0.414,0.138-0.414,0.138c-0.138,0-0.967,0.276-1.105,0.414c-0.138,0.276-0.138,0.276-0.138,0.414
					c0.414,0,0.829,0,0.967,0s0.414-0.138,0.414-0.138c0-0.138,0.276,0,0.414-0.138s0.414-0.276,0.691-0.414v-0.138
					C138.324,14.953,138.185,14.953,137.771,14.953z M132.937,18.268c-0.138-1.243,0-1.243,0-1.243c0-0.138,0.138-0.414,0-0.691
					c-0.138-0.276-1.105-0.276-1.243-0.276c-0.138,0.138-1.105,0.414-1.105,0.414c0,0.138,0,0,0,0.138
					c0.276,0,0.414-0.138,0.691-0.138c0.276,0.138,0.829-0.138,1.105,0.138c0.138,0.138-0.276,0.691-0.276,1.105
					c-0.276,0-0.138,0-0.414-0.138c-0.414,0-0.829,0.138-1.105,0.276c-0.138,0,0,0.138-0.276,0.276c0,0.138,0,0.138,0.138,0.276
					h0.276c0,0,0,0.138,0.138,0.276c0.414,0,0.967-0.276,1.105-0.276s0.138,0.276,0,0.414c-0.138,0.276-0.414,0.414-0.414,0.691
					c-0.414,0.276-0.414,0.414-0.691,0.414c-0.138,0.276-0.276,0.276-0.967,0.829c0,0,0,0,0,0.138c0.414,0,0.829-0.138,0.967-0.138
					s0.276-0.138,0.414-0.138l0.276-0.276h0.138c0.138,0.276,0.138,0.691,0.138,0.829s0.138,0.691,0.138,0.967s0,1.105,0,1.105
					c0,0.138,0,0.138,0,0.138s0,0.138,0,0.276c-0.276,0-0.414-0.276-0.829-0.414c-0.138-0.138-0.138-0.138-0.276-0.276
					c0,0.138,0.276,0.414,0.276,0.691c0.138,0,0.138,0.138,0.138,0.276c0,0.138,0.276,0.276,0.414,0.414s0.276,0.276,0.414,0.276
					s0.276,0,0.414-0.138s0.138-0.138,0-0.276c-0.138-0.276,0-0.829,0-1.105s-0.138-0.414-0.138-0.691s0-0.829-0.138-1.243
					c0-0.414-0.138-1.105-0.138-1.243c0-0.276,0-0.414,0.138-0.414c0.138-0.276,0.138-0.414,0.276-0.691
					c0-0.138,0.276-0.276,0.276-0.414C133.351,17.992,132.937,18.406,132.937,18.268z M136.804,16.887
					c-0.414,0.276-0.414,0.138-0.691,0.276c0,0.138,0,0.138,0,0.138c0.276,0.138,0.414,0,0.414,0c0.276,0,0.414,0.138,0.276,0.138
					c0.138,0,0.138,0.138,0.138,0.138c0.276,0,0.276,0,0.276-0.138c0.138,0,0.276-0.138,0.414-0.138
					c0.414,0,0.829-0.138,0.829-0.276c0-0.138,0-0.414-0.138-0.414s-0.967-0.138-1.243,0
					C137.081,16.749,137.219,16.749,136.804,16.887z M143.71,22.826L143.71,22.826c-0.276,0.138-0.138,0.414-0.276,0.691
					c-0.276,0.276-0.829,0.414-1.243,0.691c-0.691,0.138-1.243,0.138-1.381,0.138s-0.967,0-1.105,0c0,0-0.138,0-0.138-0.138
					c-0.138,0-0.829-0.138-0.829-0.138l-0.276-0.138c-0.138,0-0.276,0-0.414-0.138c0,0-0.414-0.138-0.414-0.276l-0.138-0.138
					c0,0-0.276-0.276-0.414-0.414s-0.138-0.414-0.414-0.829c-0.138-0.138-0.138-0.829-0.414-1.657c0-0.276,0-0.829-0.138-1.657
					c0-0.138,0-0.829,0-0.829c0-0.138,0-0.276,0-0.414s0-0.276-0.138-0.414c0,0.138-0.138,0.414-0.138,0.691
					c0,0.138,0,0.829-0.138,1.243c0,0.276,0,0.967-0.138,1.105c0,0.138-0.138,0.829,0,0.967c0,0.276,0.138,0.414,0.138,0.691
					c0,0.138,0,0.276,0.138,0.414c0,0.138,0.276,0.691,0.414,0.691c0,0.138,0.138,0.414,0.138,0.414l0.138,0.138
					c0.138,0.138,0.138,0.276,0.276,0.276s0.829,0.414,1.105,0.691c0.691,0.276,0.967,0.276,1.243,0.414
					c0.414,0.138,1.105,0.138,1.381,0.138s0.414,0.138,0.967,0c0.414,0,0.829-0.138,0.829-0.138c0.138,0,0.414,0,0.414-0.138
					c0.138,0,0.967-0.414,1.105-0.691c0.138-0.138,0.276-0.691,0.276-0.829C143.71,23.24,143.848,22.826,143.71,22.826z
					 M129.899,18.406c0-0.138-0.138-0.691-0.276-0.829s0-0.138-0.138-0.138c0,0.276,0,0.829,0,1.105c0,0.138,0,0.138,0,0.414
					c-0.138,0.414-0.138,0.691-0.414,1.105c-0.138,0.414,0,0.691-0.138,0.829c-0.138,0.276-0.276,0.276-0.414,0.414
					s-0.138,0.691-0.276,0.829s-0.276,0.414-0.414,0.829c-0.138,0.276,0,0.138-0.138,0.276c-0.138,0.138-0.138,0.138-0.276,0.276
					c-0.138,0.138-0.138,0.276-0.276,0.414c0,0.138,0,0.138,0,0.138l0,0l0,0c0.138,0,0.276-0.138,0.276-0.138
					c0.138-0.138,0.138-0.138,0.276-0.276c0.138-0.138,0.138-0.138,0.276-0.276c0-0.138,0.138-0.138,0.138-0.276
					c0.138-0.138,0.276-0.276,0.414-0.414s0.414-0.691,0.414-0.829s0.138-0.691,0.276-0.829c0-0.138,0.276-0.414,0.276-0.691
					s0.138-0.691,0.138-0.829c0-0.276,0-0.414,0-0.691C129.899,18.82,130.037,18.406,129.899,18.406z M138.876,18.544
					c-0.138,0-0.276,0-0.829,0.138c-0.276,0-0.276,0-0.276,0.138c-0.138,0-0.276,0.138-0.414,0.138s-0.276,0-0.414,0.138
					c-0.138,0-0.414,0.276-0.414,0.414c0.138,0.138,0.138,0,0.276,0c0,0,0.138,0,0.414,0c0.138,0,0.138,0,0.138,0.138
					c0.276,0,0.691-0.138,0.691-0.138s0.138,0,0.276,0s0.276,0,0.276-0.138c0,0,0.138-0.138,0.276-0.138
					c0.138-0.138,0.276-0.276,0.276-0.276C139.152,18.682,139.014,18.544,138.876,18.544z M136.942,21.583
					c0.138,0,0-0.138,0.276-0.138c0.829-0.276,0.967-0.276,1.105-0.414c0.276,0,0.414-0.138,0.691-0.138
					c0-0.138,0-0.138-0.138-0.276c-0.138-0.138-0.691-0.276-0.829-0.138c-0.276,0.138-0.276,0.138-0.414,0.138s-0.276,0-0.414,0
					s-0.276,0.138-0.276,0.138c-0.138,0-0.414,0.276-0.414,0.276c-0.276,0.276-0.276,0.276-0.138,0.276
					C136.114,21.583,136.804,21.583,136.942,21.583z M143.71,22.688L143.71,22.688c0-0.276,0-0.276-0.138-0.691c0,0,0,0-0.138,0
					C143.434,22.273,143.572,22.549,143.71,22.688C143.71,22.688,143.572,22.688,143.71,22.688z"/>
			</g>
		</g>
		<g>
			<path fill="#777777" d="M93,13.986h0.552v7.044H93V13.986z"/>
			<path fill="#777777" d="M117.607,13.986h0.552v7.044h-0.552V13.986z"/>
			<path fill="#777777" d="M151.881,13.986h0.552v7.044h-0.552V13.986z"/>
		</g>
		<g>
			<g>
				<path fill="#F74D4D" d="M130.175,8.876c0,0.276,0.276,0.138,0.414,0.414c0,0.138,0.691,0.276,0.967,0.138
					c0,0,0.138-0.276,0-0.276s0-0.138-0.138-0.276c-0.138-0.138-0.414-0.276-0.829-0.414c-0.138,0-0.414,0-0.691,0
					c0,0.138,0,0.138,0,0.276C129.899,8.876,130.175,8.876,130.175,8.876z M136.114,13.986c0.138-0.138,0.691-0.138,1.243-0.276
					c0.138,0,0.414,0,0.829-0.138c0.138-0.138,0.829-0.138,0.967-0.138c0,0.138,0,0.276-0.138,0.414s-0.414,0.829-0.276,0.829
					s0.967-0.829,1.105-0.967c0.138,0,0.276-0.276,0.414-0.414c0-0.138,0-0.276-0.138-0.414s-0.829-0.414-1.105-0.276
					c-0.276,0-0.414,0.138-0.691,0.276c-0.414,0.138-0.829,0.138-0.967,0.138s-0.276,0.138-0.691,0.276c-0.138,0-0.414,0-0.691,0
					c-0.277,0,0-0.414,0-0.691c0-0.138,0-0.414,0-0.691s0-0.829,0-1.105c0-0.276,0-0.829,0-0.967s-0.138-0.138-0.138-0.138
					s-0.138,0.414-0.138,0.691c0,0.138-0.138,0.691-0.276,0.967c0,0.276-0.276,0.967-0.276,1.243c0,0.414,0,0.829,0,1.105
					C135.147,13.848,135.837,13.986,136.114,13.986z M136.942,11.086c0.691,0,0.414-0.138,1.381-0.276
					c0.414,0,1.381-0.414,1.243-0.691c0-0.138-0.276-0.138-0.691-0.276c-0.138,0-0.414,0-0.967,0.138
					c-0.276,0.138-1.243,0.414-1.381,0.691c-0.138,0.138-0.276,0.276-0.276,0.276C136.252,10.948,136.666,11.086,136.942,11.086z
					 M132.661,9.981c-0.138,0-0.414,0.138-0.414,0.138c-0.138,0-0.276,0-0.414,0s-0.414,0.138-0.829,0.276
					c-0.138,0.138-0.276,0-0.691,0.138c-0.138,0.138-0.276,0.276-0.414,0.276s-0.276,0-0.414,0.138s-0.276,0.138-0.414,0.138
					s-1.243,0.138-1.243,0.276s0.829,0,0.967,0s1.105-0.138,1.381-0.138c0.414,0,0.829,0,0.967,0s0.276-0.138,0.414-0.276
					c0.138,0,0.276,0,0.414,0s0.138-0.138,0.414-0.276c0.138,0,0.414,0,0.414,0.138s-0.138,0.138-0.276,0.138l-0.414,0.276
					c-0.138,0-0.276,0.138-0.276,0.138s-0.276,0.276-0.967,0.691c0.829-0.138,1.243-0.276,1.381-0.276s0.276-0.138,0.414-0.138
					l0.276-0.138c0.138,0,0.276,0,0.414,0s0.276-0.138,0.276-0.414s-0.138-0.414-0.276-0.691
					C133.351,10.119,132.799,9.981,132.661,9.981z M133.351,14.125c-0.138,0-0.967,0-1.105,0c-0.138,0.138-0.414,0.138-0.691,0
					c0-0.138,0.138-0.276,0.138-0.276c0.138,0,0.276-0.138,0.276-0.138c0.138,0,0.276-0.276,0.414-0.276s0.276-0.138,0.276-0.138
					s0.138,0,0.138-0.138c0,0,0.138-0.276,0-0.414s-0.276-0.414-0.414-0.414c-0.276,0-0.414,0.138-0.829,0.138
					c0,0-0.276,0-0.414,0.138c-0.138,0-0.276,0.138-0.414,0.276l0,0c-0.138,0-0.276,0.138-0.414,0.138
					c-0.276,0.138-0.414,0.276-0.829,0.414v-0.138c-0.138,0.138-0.414,0.276-0.691,0.414c-0.138,0.138-0.138,0.414,0,0.414
					c0.414,0.138,0.829,0,1.105-0.138l0.414-0.138c0.138-0.138,0.276-0.276,0.414-0.276s0.276-0.138,0.414-0.138
					c0,0,0.138,0,0.138-0.138c0.138-0.138,0.691-0.276,0.691-0.138c0,0-0.276,0.276-0.276,0.414s-0.276,0.138-0.276,0.276
					c-0.138,0.138-0.276,0.414-0.414,0.414c-0.414,0.276-0.414,0.276-0.414,0.276c-0.138,0-0.138,0-0.138,0.138
					c-0.691,0.138-0.967,0.138-1.243,0.276c-0.138,0.138-0.276,0.138-0.276,0.138c-0.138,0-0.414,0.138-0.691,0.138
					c-0.414,0.138-0.967,0.414-0.967,0.414c-0.138,0-0.276,0-0.276,0.138c0,0,0,0.138,0.138,0.138c1.105,0,1.243,0,1.381-0.138
					c0.138,0,0.276-0.138,0.414-0.138c0.829-0.138,0.829-0.138,1.105-0.138c0.138-0.138,0.276,0,0.691-0.138
					c0.276-0.138,0.691-0.138,0.967-0.276c0.276-0.138,0.967-0.276,0.829-0.276c0,0,0.138,0,0.276-0.138
					c0.138,0,1.243,0,1.381-0.138C133.904,14.539,133.628,14.125,133.351,14.125z M137.771,14.953
					c-0.138,0.138-0.414,0.138-0.414,0.138c-0.138,0-0.967,0.276-1.105,0.414c-0.138,0.276-0.138,0.276-0.138,0.414
					c0.414,0,0.829,0,0.967,0s0.414-0.138,0.414-0.138c0-0.138,0.276,0,0.414-0.138s0.414-0.276,0.691-0.414v-0.138
					C138.324,14.953,138.185,14.953,137.771,14.953z M132.937,18.268c-0.138-1.243,0-1.243,0-1.243c0-0.138,0.138-0.414,0-0.691
					c-0.138-0.276-1.105-0.276-1.243-0.276c-0.138,0.138-1.105,0.414-1.105,0.414c0,0.138,0,0,0,0.138
					c0.276,0,0.414-0.138,0.691-0.138c0.276,0.138,0.829-0.138,1.105,0.138c0.138,0.138-0.276,0.691-0.276,1.105
					c-0.276,0-0.138,0-0.414-0.138c-0.414,0-0.829,0.138-1.105,0.276c-0.138,0,0,0.138-0.276,0.276c0,0.138,0,0.138,0.138,0.276
					h0.276c0,0,0,0.138,0.138,0.276c0.414,0,0.967-0.276,1.105-0.276s0.138,0.276,0,0.414c-0.138,0.276-0.414,0.414-0.414,0.691
					c-0.414,0.276-0.414,0.414-0.691,0.414c-0.138,0.276-0.276,0.276-0.967,0.829c0,0,0,0,0,0.138c0.414,0,0.829-0.138,0.967-0.138
					s0.276-0.138,0.414-0.138l0.276-0.276h0.138c0.138,0.276,0.138,0.691,0.138,0.829s0.138,0.691,0.138,0.967s0,1.105,0,1.105
					c0,0.138,0,0.138,0,0.138s0,0.138,0,0.276c-0.276,0-0.414-0.276-0.829-0.414c-0.138-0.138-0.138-0.138-0.276-0.276
					c0,0.138,0.276,0.414,0.276,0.691c0.138,0,0.138,0.138,0.138,0.276c0,0.138,0.276,0.276,0.414,0.414s0.276,0.276,0.414,0.276
					s0.276,0,0.414-0.138s0.138-0.138,0-0.276c-0.138-0.276,0-0.829,0-1.105s-0.138-0.414-0.138-0.691s0-0.829-0.138-1.243
					c0-0.414-0.138-1.105-0.138-1.243c0-0.276,0-0.414,0.138-0.414c0.138-0.276,0.138-0.414,0.276-0.691
					c0-0.138,0.276-0.276,0.276-0.414C133.351,17.992,132.937,18.406,132.937,18.268z M136.804,16.887
					c-0.414,0.276-0.414,0.138-0.691,0.276c0,0.138,0,0.138,0,0.138c0.276,0.138,0.414,0,0.414,0c0.276,0,0.414,0.138,0.276,0.138
					c0.138,0,0.138,0.138,0.138,0.138c0.276,0,0.276,0,0.276-0.138c0.138,0,0.276-0.138,0.414-0.138
					c0.414,0,0.829-0.138,0.829-0.276c0-0.138,0-0.414-0.138-0.414s-0.967-0.138-1.243,0
					C137.081,16.749,137.219,16.749,136.804,16.887z M143.71,22.826L143.71,22.826c-0.276,0.138-0.138,0.414-0.276,0.691
					c-0.276,0.276-0.829,0.414-1.243,0.691c-0.691,0.138-1.243,0.138-1.381,0.138s-0.967,0-1.105,0c0,0-0.138,0-0.138-0.138
					c-0.138,0-0.829-0.138-0.829-0.138l-0.276-0.138c-0.138,0-0.276,0-0.414-0.138c0,0-0.414-0.138-0.414-0.276l-0.138-0.138
					c0,0-0.276-0.276-0.414-0.414s-0.138-0.414-0.414-0.829c-0.138-0.138-0.138-0.829-0.414-1.657c0-0.276,0-0.829-0.138-1.657
					c0-0.138,0-0.829,0-0.829c0-0.138,0-0.276,0-0.414s0-0.276-0.138-0.414c0,0.138-0.138,0.414-0.138,0.691
					c0,0.138,0,0.829-0.138,1.243c0,0.276,0,0.967-0.138,1.105c0,0.138-0.138,0.829,0,0.967c0,0.276,0.138,0.414,0.138,0.691
					c0,0.138,0,0.276,0.138,0.414c0,0.138,0.276,0.691,0.414,0.691c0,0.138,0.138,0.414,0.138,0.414l0.138,0.138
					c0.138,0.138,0.138,0.276,0.276,0.276s0.829,0.414,1.105,0.691c0.691,0.276,0.967,0.276,1.243,0.414
					c0.414,0.138,1.105,0.138,1.381,0.138s0.414,0.138,0.967,0c0.414,0,0.829-0.138,0.829-0.138c0.138,0,0.414,0,0.414-0.138
					c0.138,0,0.967-0.414,1.105-0.691c0.138-0.138,0.276-0.691,0.276-0.829C143.71,23.24,143.848,22.826,143.71,22.826z
					 M129.899,18.406c0-0.138-0.138-0.691-0.276-0.829s0-0.138-0.138-0.138c0,0.276,0,0.829,0,1.105c0,0.138,0,0.138,0,0.414
					c-0.138,0.414-0.138,0.691-0.414,1.105c-0.138,0.414,0,0.691-0.138,0.829c-0.138,0.276-0.276,0.276-0.414,0.414
					s-0.138,0.691-0.276,0.829s-0.276,0.414-0.414,0.829c-0.138,0.276,0,0.138-0.138,0.276c-0.138,0.138-0.138,0.138-0.276,0.276
					c-0.138,0.138-0.138,0.276-0.276,0.414c0,0.138,0,0.138,0,0.138l0,0l0,0c0.138,0,0.276-0.138,0.276-0.138
					c0.138-0.138,0.138-0.138,0.276-0.276c0.138-0.138,0.138-0.138,0.276-0.276c0-0.138,0.138-0.138,0.138-0.276
					c0.138-0.138,0.276-0.276,0.414-0.414s0.414-0.691,0.414-0.829s0.138-0.691,0.276-0.829c0-0.138,0.276-0.414,0.276-0.691
					s0.138-0.691,0.138-0.829c0-0.276,0-0.414,0-0.691C129.899,18.82,130.037,18.406,129.899,18.406z M138.876,18.544
					c-0.138,0-0.276,0-0.829,0.138c-0.276,0-0.276,0-0.276,0.138c-0.138,0-0.276,0.138-0.414,0.138s-0.276,0-0.414,0.138
					c-0.138,0-0.414,0.276-0.414,0.414c0.138,0.138,0.138,0,0.276,0c0,0,0.138,0,0.414,0c0.138,0,0.138,0,0.138,0.138
					c0.276,0,0.691-0.138,0.691-0.138s0.138,0,0.276,0s0.276,0,0.276-0.138c0,0,0.138-0.138,0.276-0.138
					c0.138-0.138,0.276-0.276,0.276-0.276C139.152,18.682,139.014,18.544,138.876,18.544z M136.942,21.583
					c0.138,0,0-0.138,0.276-0.138c0.829-0.276,0.967-0.276,1.105-0.414c0.276,0,0.414-0.138,0.691-0.138
					c0-0.138,0-0.138-0.138-0.276c-0.138-0.138-0.691-0.276-0.829-0.138c-0.276,0.138-0.276,0.138-0.414,0.138s-0.276,0-0.414,0
					s-0.276,0.138-0.276,0.138c-0.138,0-0.414,0.276-0.414,0.276c-0.276,0.276-0.276,0.276-0.138,0.276
					C136.114,21.583,136.804,21.583,136.942,21.583z M143.71,22.688L143.71,22.688c0-0.276,0-0.276-0.138-0.691c0,0,0,0-0.138,0
					C143.434,22.273,143.572,22.549,143.71,22.688C143.71,22.688,143.572,22.688,143.71,22.688z"/>
			</g>
		</g>
	</g>
	<g>
		<path fill="#888888" d="M79.6,15.263c0,0,0.138,0,0.276,0.138c0.414,0.138,0.552,0.276,0.552,0.414s0,0.276,0,0.552
			c0.138,1.105,0.276,1.795,0.276,2.21c0,0.138,0,0.276-0.138,0.414c0,0.138-0.138,0.138-0.138,0.138c-0.138,0-0.138,0-0.276-0.138
			s-0.138-0.414-0.138-0.552l-0.276-1.105c0-0.552-0.138-0.967-0.138-1.105c0-0.276-0.138-0.414-0.414-0.552
			c-0.138,0-0.138-0.138-0.138-0.138c0-0.138,0-0.276,0.138-0.276C79.462,15.263,79.6,15.263,79.6,15.263z M86.506,14.71
			c0,0,0.138,0.138,0.552,0.276c0.414,0.276,0.552,0.414,0.552,0.552s0,0.138-0.138,0.276c-0.276,0.414-0.552,0.691-0.691,1.105
			l-0.276,0.691c-0.138,0.276-0.414,0.552-0.552,0.552c-0.276,0-0.414-0.138-0.414-0.276c0,0,0-0.138,0.138-0.276
			c0.138-0.276,0.138-0.691,0.414-1.243c0.138-0.414,0.138-0.691,0.138-0.829s-0.138-0.276-0.414-0.276
			c-0.414,0-1.105,0-1.934,0.138c-0.967,0.138-1.934,0.276-2.9,0.414c-0.138,0-0.276,0.138-0.414,0.138s-0.276,0-0.414-0.138
			s-0.276-0.138-0.276-0.276c0-0.138,0.138-0.138,0.276-0.138c0.414,0,0.829,0,1.243-0.138c0.967-0.138,2.348-0.276,4.143-0.414
			C85.816,14.848,86.092,14.71,86.506,14.71C86.506,14.71,86.644,14.71,86.506,14.71S86.506,14.71,86.506,14.71z M85.677,17.749
			c0,0,0.138,0,0.414,0.138s0.276,0.276,0.276,0.414s-0.138,0.138-0.276,0.138c-0.691,0-1.243,0-1.795,0.138l-2.624,0.276
			c-0.414,0-0.829,0.138-1.105,0.138s-0.414,0-0.552-0.138s-0.138-0.138-0.138-0.276c0-0.138,0.138-0.138,0.276-0.138
			c1.381,0,2.762-0.138,3.867-0.414c0.691-0.138,1.105-0.138,1.381-0.138C85.677,17.749,85.677,17.749,85.677,17.749z
			 M82.777,12.224c0,0,0.138,0,0.414,0.138s0.414,0.138,0.414,0.276c0,0,0,0.138,0,0.276c-0.138,0.276-0.138,0.829-0.138,1.519
			v5.939c0,0.829,0,1.519-0.138,1.934c0,0.552-0.138,0.967-0.276,1.105s-0.138,0.276-0.276,0.276c0,0-0.138-0.138-0.138-0.276
			c0-0.276-0.138-0.691-0.138-1.243v-7.872c0-0.691-0.138-1.105-0.276-1.519c0-0.138-0.138-0.276-0.138-0.276
			c0-0.138,0-0.276,0.138-0.276C82.639,12.224,82.777,12.224,82.777,12.224z"/>
		<path fill="#888888" d="M110.493,19.13c0.276,0.138,0.552,0.276,0.552,0.552c0,0.138-0.276,0.138-0.691,0.138
			c-0.691,0-1.381,0-2.072,0c-0.829,0-1.795,0-3.038,0.138c-0.829,0-1.795,0.138-2.9,0.414c-0.276,0-0.414,0.138-0.552,0.138
			s-0.414,0-0.691-0.138c-0.276-0.138-0.414-0.276-0.414-0.276c0-0.138,0.138-0.138,0.276-0.138c1.105,0,1.934,0,2.486-0.138
			c0.967-0.138,2.072-0.138,3.315-0.276c1.105-0.138,1.934-0.138,2.624-0.276c0.276,0,0.414,0,0.414,0
			C109.94,18.992,110.078,18.992,110.493,19.13z M104.277,17.611c0.138,0,0.276,0,0.414,0.138s0.138,0.138,0.138,0.276
			c0,0,0,0-0.138,0c-0.552,0-1.381,0.138-2.21,0.414c-0.138,0-0.276,0.138-0.414,0.138s-0.276,0-0.552-0.138
			c-0.138-0.138-0.276-0.138-0.276-0.276c0,0,0,0,0.138,0c0.552,0,1.243-0.138,2.348-0.276
			C104.139,17.611,104.277,17.611,104.277,17.611z M101.93,14.02c0,0,0.138,0,0.276,0s0.276,0,0.276,0c0.138,0,0.276,0,0.414,0
			c0.967-0.138,1.519-0.276,1.934-0.276c0.138,0,0.138,0,0.138,0c0.276,0,0.276,0,0.276,0.138c0,0-0.138,0.138-0.276,0.138
			c-1.105,0.276-1.657,0.414-1.657,0.414c-0.276,0.138-0.414,0.138-0.691,0.276c-0.138,0-0.138,0.138-0.276,0.138
			s-0.276-0.138-0.552-0.276C101.791,14.434,101.791,14.296,101.93,14.02C101.791,14.158,101.791,14.02,101.93,14.02z
			 M108.697,15.401c0.138,0,0.276,0.138,0.276,0.276c0,0.138-0.138,0.138-0.414,0.138c-0.276,0.138-0.967,0.138-2.072,0.276
			c-1.519,0.138-2.624,0.276-3.038,0.276s-0.552,0-0.691-0.138c-0.138-0.138-0.138-0.138-0.138-0.276c0,0,0.138-0.138,0.552-0.138
			c0.829,0,1.934-0.138,2.9-0.276c0.691-0.138,1.381-0.138,1.795-0.276c0.138,0,0.276,0,0.276,0
			C108.283,15.263,108.559,15.263,108.697,15.401z M103.449,16.782c0.138,0,0.138,0.138,0.138,0.276c0,0.276,0,0.414,0,0.552
			c0.138,0.967,0.138,1.381,0.138,1.519c0,0.276-0.138,0.276-0.138,0.276c-0.138,0-0.276-0.138-0.276-0.552
			c-0.276-0.967-0.552-1.519-0.552-1.795c-0.138-0.138-0.138-0.276-0.138-0.276c0-0.138,0-0.138,0.138-0.138
			C102.896,16.644,103.173,16.644,103.449,16.782z M108.559,20.925c0.276,0.138,0.414,0.414,0.414,0.414
			c0,0.138-0.138,0.138-0.414,0.138c-0.691,0-1.657,0-2.624,0.138c-0.552,0-1.243,0.138-2.21,0.276c-0.138,0-0.276,0-0.276,0
			c-0.138,0-0.414,0-0.552-0.138c-0.276-0.138-0.414-0.138-0.414-0.276c0,0,0.138-0.138,0.276-0.138
			c1.795-0.138,3.315-0.414,4.558-0.552c0.414,0,0.691-0.138,0.829-0.138C108.145,20.787,108.421,20.787,108.559,20.925z
			 M103.863,12.638c0.138,0,0.138,0.138,0.138,0.276c0,0.276,0,0.414,0,0.552c0.138,1.105,0.276,1.657,0.276,1.657
			c0,0.276-0.138,0.276-0.138,0.276c-0.138,0-0.276-0.138-0.276-0.552c-0.276-1.105-0.552-1.795-0.691-1.934
			c-0.138-0.138-0.138-0.276-0.138-0.414s0-0.138,0.138-0.138C103.449,12.5,103.587,12.638,103.863,12.638z M105.382,15.953
			c0,0,0.138,0,0.414,0.138c0.276,0.138,0.414,0.276,0.414,0.414c0,0,0,0.138-0.138,0.276c-0.138,0.276-0.138,0.552-0.138,0.967
			v3.867c0,0.691-0.138,1.381-0.138,1.934c-0.138,0.414-0.138,0.691-0.276,0.691s-0.138-0.138-0.276-0.414c0-0.414,0-0.967,0-1.657
			v-4.972c0-0.414,0-0.691-0.138-0.829c0-0.138,0-0.138,0-0.276C105.106,15.953,105.244,15.953,105.382,15.953L105.382,15.953z
			 M109.388,13.467c0.276,0.138,0.414,0.138,0.414,0.276s-0.138,0.138-0.276,0.138s-0.276,0-0.552,0c-0.414,0-0.829,0-1.243,0.138
			c-0.552,0.138-0.967,0.138-1.243,0.138h-0.138c-0.138,0-0.276,0-0.414-0.138s-0.276-0.138-0.276-0.138s0-0.138,0.138-0.138
			c0.414,0,0.829-0.138,1.381-0.276c0.691-0.138,1.243-0.276,1.381-0.276s0.138,0,0.138,0
			C108.973,13.329,109.111,13.329,109.388,13.467z M109.802,17.196c0.276,0.138,0.414,0.138,0.414,0.276
			c0,0.138-0.138,0.138-0.276,0.138s-0.276,0-0.552,0c-0.414,0-0.691,0-1.105,0.138c-0.552,0.138-0.967,0.138-1.105,0.138h-0.138
			c-0.138,0-0.276,0-0.414-0.138s-0.276-0.138-0.276-0.138s0-0.138,0.138-0.138c0.414,0,0.829-0.138,1.243-0.276
			c0.691-0.138,1.105-0.276,1.381-0.276c0.138,0,0.138,0,0.138,0C109.388,17.058,109.526,17.058,109.802,17.196z M107.868,12.224
			c0.276,0.138,0.414,0.276,0.414,0.414c0,0,0,0.138-0.138,0.276c-0.138,0.276-0.276,0.552-0.276,0.691
			c-0.276,0.691-0.552,1.105-0.829,1.381c-0.138,0.138-0.276,0.276-0.276,0.276c-0.138,0-0.138,0-0.138-0.138
			c0.276-0.691,0.414-1.243,0.414-1.657c0.138-0.414,0.138-0.691,0.138-0.829s0-0.138,0-0.414c0-0.138,0.138-0.276,0.276-0.276
			C107.454,12.086,107.592,12.086,107.868,12.224z M108.421,16.368c0.276,0.138,0.276,0.276,0.276,0.414c0,0,0,0.138-0.138,0.276
			c-0.138,0.276-0.138,0.414-0.276,0.691c-0.276,0.691-0.552,1.105-0.691,1.243c-0.138,0.138-0.138,0.276-0.276,0.276
			c0,0-0.138,0-0.138-0.138c0.138-0.691,0.276-1.105,0.276-1.657c0-0.414,0.138-0.552,0.138-0.829c0,0,0-0.138,0-0.276
			c0-0.138,0.138-0.276,0.138-0.276C108.007,16.091,108.145,16.229,108.421,16.368z"/>
		<path fill="#888888" d="M159.319,20.373c0.276,0.138,0.552,0.276,0.691,0.414c0.138,0.138,0.138,0.414,0.138,0.829
			c0,0.276-0.138,0.552-0.414,0.552c0,0-0.138,0-0.276-0.138c-0.138-0.276-0.276-0.691-0.552-1.381c0-0.138,0-0.138,0-0.138
			c0-0.138,0-0.138,0.138-0.138C159.181,20.373,159.319,20.373,159.319,20.373z M160.976,13.329c0.138,0,0.276,0.138,0.414,0.276
			c0.138,0.138,0.276,0.276,0.276,0.414s-0.138,0.276-0.276,0.414c-0.276,0.414-0.691,1.105-1.243,2.072
			c0,0.138-0.138,0.276-0.138,0.276c0,0.138,0,0.138,0.138,0.138c0,0,0.276,0,0.552-0.138s0.552-0.138,0.691-0.138
			c0.139,0,0.276,0,0.276,0.138s-0.138,0.138-0.276,0.276c-0.691,0.138-0.967,0.276-0.967,0.276c-0.138,0-0.414,0.138-0.552,0.276
			c-0.138,0.138-0.138,0.138-0.276,0.138s-0.138-0.138-0.276-0.276c-0.138-0.138-0.138-0.276-0.138-0.414s0-0.138,0.138-0.276
			c0.276-0.138,0.552-0.691,0.967-1.381c0.276-0.691,0.414-1.105,0.552-1.657C160.838,13.467,160.838,13.329,160.976,13.329z
			 M162.081,14.986c0.138,0,0.138,0.138,0.276,0.276c0.138,0.138,0.138,0.276,0.138,0.414s0,0.276-0.138,0.414
			c-0.276,0.414-0.691,0.829-0.829,1.243c-0.691,0.967-1.105,1.519-1.105,1.519s0,0,0.138,0c0,0,0.414-0.138,1.243-0.414
			c0.138,0,0.276-0.138,0.414-0.138s0.138,0,0.138,0.138s-0.138,0.138-0.276,0.276c-0.967,0.414-1.519,0.552-1.795,0.829
			l-0.138,0.138c-0.138,0-0.138,0-0.276-0.138s-0.276-0.276-0.276-0.414s0-0.138,0.138-0.138c0.138-0.138,0.414-0.414,0.691-0.829
			c0,0,0.414-0.552,1.105-1.657c0.276-0.414,0.414-0.829,0.414-1.243C161.943,15.125,162.081,14.986,162.081,14.986z
			 M160.838,19.959c0.276,0.138,0.414,0.138,0.552,0.276c0.138,0.138,0.138,0.276,0.138,0.552c0,0.276-0.138,0.414-0.276,0.414
			c0,0-0.138,0-0.138-0.138c-0.138-0.138-0.276-0.414-0.552-0.967v-0.138c0,0,0-0.138,0.138-0.138
			C160.7,19.959,160.7,19.959,160.838,19.959z M162.081,17.887c0.276,0.138,0.414,0.138,0.552,0.276
			c0.138,0.138,0.138,0.276,0.138,0.552c0,0.276-0.138,0.414-0.276,0.414c0,0-0.138,0-0.138-0.138
			c-0.138-0.138-0.276-0.552-0.552-0.967v-0.138c0,0,0-0.138,0.138-0.138C161.805,17.749,161.943,17.749,162.081,17.887z
			 M162.081,19.544c0.276,0.138,0.414,0.138,0.552,0.276c0.138,0.138,0.138,0.276,0.138,0.414c0,0.276-0.138,0.414-0.276,0.414
			c0,0-0.138,0-0.138-0.138c-0.138-0.138-0.276-0.414-0.552-0.829v-0.138c0,0,0-0.138,0.138-0.138
			C161.943,19.544,162.081,19.544,162.081,19.544z M163.877,14.434c0.138,0.138,0.276,0.276,0.276,0.414
			c-0.138,4.143-0.138,6.491-0.276,7.044c0,0.276-0.138,0.414-0.276,0.414s-0.276-0.138-0.276-0.276
			c-0.138-0.276-0.276-0.414-0.276-0.691c0-0.138,0-0.276,0.138-0.414c0.138-0.414,0.276-0.829,0.276-1.519
			c0.138-0.691,0.138-1.795,0.138-3.315c0-0.691-0.138-1.105-0.276-1.381c0-0.138-0.138-0.138-0.138-0.276s0.138-0.138,0.276-0.138
			C163.601,14.296,163.739,14.296,163.877,14.434z M169.401,14.02c0.276,0.138,0.414,0.276,0.414,0.414s0,0.138-0.138,0.276
			c-0.138,0.276-0.138,0.829-0.138,1.519c0,1.519,0,2.624,0,3.453c0,0.552,0,1.243,0,1.934c0,0.552-0.138,1.105-0.276,1.381
			s-0.414,0.552-0.552,0.552l-0.414-1.381c0.138,0,0.138-0.138,0.276-0.276c0.138-0.414,0.138-1.519,0.138-3.315
			c0-0.829,0-2.072,0-3.453c0-0.276,0-0.414-0.138-0.414c0-0.138-0.138-0.138-0.276-0.138s-0.552,0-1.381,0.138
			c-1.243,0.138-2.072,0.276-2.624,0.276c-0.276,0-0.414,0.138-0.414,0.138c-0.138,0-0.138,0-0.276-0.138s-0.138-0.138-0.138-0.276
			c0,0,0.138-0.138,0.276-0.138c0.829,0,1.795-0.138,2.9-0.276c0.691-0.138,1.381-0.276,1.795-0.276
			c0.276,0,0.414-0.138,0.414-0.138C168.849,13.743,169.125,13.882,169.401,14.02z M168.02,18.301
			c0.276,0.138,0.414,0.276,0.414,0.414s-0.138,0.138-0.276,0.138c-0.552,0-1.105,0-1.657,0.138c-0.414,0-0.829,0.138-1.381,0.138
			c-0.138,0-0.138,0-0.276,0s-0.276,0-0.414-0.138s-0.276-0.138-0.276-0.138s0,0,0.138-0.138c1.243-0.138,2.21-0.276,3.038-0.414
			c0.276,0,0.414-0.138,0.552-0.138C167.606,18.163,167.744,18.163,168.02,18.301z M168.02,16.644c0.138,0,0.138,0.138,0.138,0.138
			s-0.138,0.138-0.276,0.138s-0.552,0.138-1.243,0.276c-0.967,0.138-1.519,0.138-1.795,0.138s-0.414,0-0.552-0.138
			s-0.138-0.138-0.138-0.138s0.138-0.138,0.276-0.138c0.552,0,1.105-0.138,1.795-0.276c0.414-0.138,0.829-0.138,1.105-0.276
			c0.138,0,0.138,0,0.138,0C167.606,16.506,167.744,16.644,168.02,16.644z M165.12,15.539c0.276,0.138,0.414,0.276,0.552,0.414
			c0.138,0.138,0.138,0.414,0.138,0.691s-0.138,0.414-0.276,0.414c0,0-0.138,0-0.138-0.138c-0.138-0.138-0.276-0.552-0.552-1.105
			v-0.138C164.844,15.677,164.844,15.539,165.12,15.539C164.844,15.401,164.982,15.539,165.12,15.539z M165.672,18.854
			c0.138,0,0.138,0.138,0.138,0.276c0,0,0,0-0.138,0.138s-0.138,0.414-0.138,0.691c0,0.138,0,0.276,0.138,0.276
			s0.138,0.138,0.414,0.138c0.552,0,0.967,0,1.243-0.138c0.138-0.138,0.276-0.138,0.414-0.138s0.276,0,0.414,0.138
			s0.276,0.138,0.276,0.276c0,0.138-0.138,0.138-0.276,0.276c-0.414,0.138-0.967,0.276-1.381,0.276
			c-0.552,0-0.967-0.138-1.105-0.276c-0.138-0.138-0.276-0.414-0.276-0.691c0-0.138,0-0.138,0-0.138V19.82c0-0.276,0-0.414,0-0.552
			V19.13c0-0.138,0-0.138,0.138-0.138C165.258,18.715,165.396,18.715,165.672,18.854z M166.087,17.334
			c0.276,0.138,0.414,0.138,0.552,0.276c0.138,0.138,0.138,0.276,0.138,0.414c0,0.276-0.138,0.414-0.276,0.414
			c0,0-0.138,0-0.138-0.138c-0.138-0.138-0.276-0.414-0.552-0.829v-0.138c0,0,0-0.138,0.138-0.138
			C165.81,17.334,165.948,17.334,166.087,17.334z M167.33,15.263c0.276,0.138,0.276,0.276,0.276,0.414c0,0,0,0.138-0.138,0.138
			c-0.138,0.138-0.138,0.276-0.276,0.414c-0.276,0.414-0.552,0.552-0.691,0.691c-0.138,0.138-0.138,0.138-0.276,0.138
			c0,0-0.138,0-0.138-0.138c0.138-0.414,0.276-0.691,0.414-0.829c0-0.138,0.138-0.276,0.138-0.414c0,0,0-0.138,0-0.276
			c0-0.138,0.138-0.138,0.138-0.138C166.915,14.986,167.191,15.125,167.33,15.263z M167.468,21.892
			c0.552,0.138,0.829,0.138,0.967,0.138l0.414,1.381c-0.138,0-0.138,0-0.276-0.138c-0.414-0.414-0.691-0.691-1.105-1.105
			c-0.138-0.138-0.276-0.138-0.276-0.138l0,0C167.33,21.892,167.468,21.892,167.468,21.892z"/>
	</g>
</g>
</svg>
